<?xml version="1.0" standalone="no"?><!DOCTYPE svg PUBLIC "-//W3C//DTD SVG 1.1//EN" "http://www.w3.org/Graphics/SVG/1.1/DTD/svg11.dtd"><svg t="1545203196415" class="icon" style="" viewBox="0 0 1024 1024" version="1.1" xmlns="http://www.w3.org/2000/svg" p-id="23501" xmlns:xlink="http://www.w3.org/1999/xlink" width="200" height="200"><defs><style type="text/css"></style></defs><path d="M493.45411 71.89033 197.751365 361.596502c-9.624195 9.380648-9.624195 24.707728 0 34.138518 9.576099 9.381671 25.222451 9.381671 34.848693 0l253.612115-248.494561 0 786.690176c0 13.3214 11.047614 24.142863 24.642237 24.142863 13.597693 0 24.645306-10.821463 24.645306-24.142863L535.499715 147.240459l253.632581 248.494561c9.603729 9.381671 25.248034 9.381671 34.847669 0 4.836145-4.76349 7.194866-10.939143 7.194866-17.116843 0-6.1777-2.405793-12.355399-7.194866-17.116843L528.255731 71.797209c-9.602705-9.383718-25.244964-9.383718-34.849716 0L493.45411 71.89033z" p-id="23502" fill="#1296db"></path></svg>